# xmcd
#
# Track frame offsets:
#	150
#	16338
#	31742
#	50623
#	61780
#	71862
#	87351
#	105620
#	120457
#	136896
#	150401
#	162677
#	176753
#	197333
#
# Disc length: 2941 seconds
#
# Revision: 1
# Processed by: cddbd v1.5.2PL0 Copyright (c) Steve Scherf et al.
# Submitted via: CDmax 2.0
#
DISCID=b40b7b0e
DTITLE=Eleni Mandell - Miracle of five
DYEAR=2006
DGENRE=Americana
TTITLE0=Moonglow, lamp low
TTITLE1=Girls
TTITLE2=My twin
TTITLE3=Salt truck
TTITLE4=Wings in his eyes
TTITLE5=Make-out king
TTITLE6=Miracle of five
TTITLE7=Perfect stranger
TTITLE8=Dear friend
TTITLE9=Somebody else
TTITLE10=Beautiful
TTITLE11=Miss me
TTITLE12=Invisible moon
TTITLE13=Felt like love
EXTD=
EXTT0=
EXTT1=
EXTT2=
EXTT3=
EXTT4=
EXTT5=
EXTT6=
EXTT7=
EXTT8=
EXTT9=
EXTT10=
EXTT11=
EXTT12=
EXTT13=
PLAYORDER=
